<?xml version="1.0" encoding="utf-8"?>
<!-- Generator: Adobe Illustrator 19.0.0, SVG Export Plug-In . SVG Version: 6.00 Build 0)  -->
<svg version="1.1" id="remove-participant" xmlns="http://www.w3.org/2000/svg" xmlns:xlink="http://www.w3.org/1999/xlink" x="0px"
	 y="0px" viewBox="0 0 16 16" enable-background="new 0 0 16 16" xml:space="preserve">
<g id="XMLID_1_">
	<path id="XMLID_4_" fill="#000001" d="M14.761,4.209c0.69,1.182,1.035,2.473,1.035,3.872c0,1.4-0.345,2.69-1.035,3.873
		c-0.689,1.182-1.625,2.118-2.807,2.807c-1.183,0.69-2.473,1.035-3.873,1.035c-1.399,0-2.69-0.345-3.872-1.035
		c-1.182-0.689-2.117-1.625-2.808-2.807c-0.689-1.182-1.034-2.473-1.034-3.873c0-1.399,0.345-2.69,1.034-3.872
		c0.69-1.182,1.626-2.118,2.808-2.808c1.182-0.689,2.473-1.035,3.872-1.035c1.4,0,2.69,0.345,3.873,1.035
		C13.136,2.092,14.071,3.028,14.761,4.209z M12.581,8.725V7.439c0-0.174-0.063-0.325-0.19-0.452
		c-0.127-0.127-0.278-0.191-0.452-0.191H4.225c-0.175,0-0.325,0.064-0.452,0.191C3.646,7.114,3.581,7.265,3.581,7.439v1.286
		c0,0.174,0.064,0.325,0.191,0.452c0.127,0.127,0.277,0.19,0.452,0.19h7.714c0.174,0,0.325-0.063,0.452-0.19
		C12.518,9.049,12.581,8.899,12.581,8.725z"/>
</g>
</svg>
