<?xml version="1.0" encoding="utf-8"?>
<!-- Generator: Adobe Illustrator 19.0.0, SVG Export Plug-In . SVG Version: 6.00 Build 0)  -->
<svg version="1.1" id="Layer_1" xmlns="http://www.w3.org/2000/svg" xmlns:xlink="http://www.w3.org/1999/xlink" x="0px" y="0px"
	 viewBox="0 0 16 16" enable-background="new 0 0 16 16" xml:space="preserve">
<g id="XMLID_1_">
	<path id="XMLID_2_" d="M15.751,0.107c0.196,0.143,0.276,0.333,0.241,0.572l-2.285,13.706c-0.03,0.173-0.125,0.306-0.286,0.401
		c-0.084,0.048-0.176,0.072-0.276,0.072c-0.066,0-0.137-0.015-0.214-0.045l-4.703-1.918l-2.659,2.918C5.462,15.938,5.322,16,5.15,16
		c-0.084,0-0.151-0.012-0.205-0.036c-0.113-0.041-0.202-0.112-0.268-0.21c-0.066-0.098-0.098-0.206-0.098-0.326v-4.033L0.367,9.673
		C0.146,9.59,0.028,9.426,0.01,9.182C-0.008,8.95,0.087,8.774,0.296,8.656L15.144,0.09C15.352-0.035,15.555-0.03,15.751,0.107z
		 M12.699,13.483l1.972-11.806L1.875,9.057l2.998,1.223l7.7-5.702L8.309,11.69L12.699,13.483z"/>
</g>
</svg>
