<?xml version="1.0" encoding="utf-8"?>
<!-- Generator: Adobe Illustrator 19.0.0, SVG Export Plug-In . SVG Version: 6.00 Build 0)  -->
<svg version="1.1" id="info" xmlns="http://www.w3.org/2000/svg" xmlns:xlink="http://www.w3.org/1999/xlink" x="0px" y="0px"
	 viewBox="0 0 16 16" enable-background="new 0 0 16 16" xml:space="preserve">
<g id="XMLID_16_">
	<g id="XMLID_66_">
		<g id="XMLID_67_">
			<path id="XMLID_68_" fill="#231F20" d="M9.036,0c1.071,0,1.607,0.731,1.607,1.566c0,1.044-0.93,2.009-2.143,2.009
				c-1.015,0-1.607-0.6-1.579-1.592C6.921,1.148,7.626,0,9.036,0z M5.737,16c-0.846,0-1.466-0.522-0.874-2.818l0.971-4.073
				c0.169-0.652,0.197-0.913,0-0.913c-0.254,0-1.352,0.451-2.002,0.894L3.41,8.385c2.058-1.748,4.426-2.773,5.441-2.773
				c0.846,0,0.987,1.018,0.564,2.584l-1.112,4.282c-0.197,0.757-0.112,1.017,0.084,1.017c0.254,0,1.086-0.314,1.903-0.967
				l0.48,0.653C8.768,15.216,6.583,16,5.737,16z"/>
		</g>
	</g>
</g>
</svg>
