<?xml version="1.0" encoding="utf-8"?>
<!-- Generator: Adobe Illustrator 19.0.0, SVG Export Plug-In . SVG Version: 6.00 Build 0)  -->
<svg version="1.1" id="close" xmlns="http://www.w3.org/2000/svg" xmlns:xlink="http://www.w3.org/1999/xlink" x="0px" y="0px"
	 viewBox="0 0 16 16" enable-background="new 0 0 16 16" xml:space="preserve">
<path id="XMLID_7_" fill="#231F20" d="M8.657,8l5.505-5.505c0.273-0.273,0.273-0.717,0-0.99s-0.717-0.273-0.99,0L7.667,7.01
	L2.162,1.505c-0.273-0.273-0.717-0.273-0.99,0s-0.273,0.717,0,0.99L6.677,8l-5.505,5.505c-0.273,0.273-0.273,0.717,0,0.99
	C1.309,14.632,1.488,14.7,1.667,14.7s0.358-0.068,0.495-0.205L7.667,8.99l5.505,5.505c0.137,0.137,0.316,0.205,0.495,0.205
	s0.358-0.068,0.495-0.205c0.273-0.273,0.273-0.717,0-0.99L8.657,8z"/>
</svg>
